<?xml version="1.0" standalone="no"?>
<!DOCTYPE svg PUBLIC "-//W3C//DTD SVG 20010904//EN"
 "http://www.w3.org/TR/2001/REC-SVG-20010904/DTD/svg10.dtd">
<svg version="1.0" xmlns="http://www.w3.org/2000/svg"
 width="350.000000pt" height="350.000000pt" viewBox="0 0 350.000000 350.000000"
 preserveAspectRatio="xMidYMid meet">
<metadata>
Created by potrace 1.14, written by Peter Selinger 2001-2017
</metadata>
<g transform="translate(0.000000,350.000000) scale(0.100000,-0.100000)"
fill="#000000" stroke="none">
<path d="M201 3404 c-58 -29 -104 -84 -122 -143 -7 -24 -9 -520 -7 -1532 l3
-1496 30 -49 c19 -30 49 -60 79 -79 l49 -30 1517 0 1517 0 49 30 c30 19 60 49
79 79 l30 49 0 1517 0 1517 -30 49 c-19 30 -49 60 -79 79 l-49 30 -1507 3
-1506 2 -53 -26z m1871 -804 l-4 -150 136 0 c80 0 136 4 136 10 0 5 -40 50
-89 99 l-90 91 72 46 c40 26 79 49 88 51 17 5 142 -113 194 -181 l29 -38 -21
-17 c-11 -9 -33 -26 -49 -39 l-29 -23 144 5 144 4 -7 -66 c-3 -37 -6 -88 -6
-114 l0 -48 -325 0 -324 0 4 -27 c2 -16 7 -66 10 -112 7 -107 59 -418 78 -462
l13 -34 28 47 c48 83 124 260 151 352 14 50 27 92 30 94 4 5 192 -64 215 -78
25 -15 -161 -414 -265 -568 -30 -45 -55 -88 -55 -94 0 -15 59 -105 109 -166
30 -37 98 -92 113 -92 14 0 38 86 48 172 15 129 13 127 65 79 24 -22 67 -55
95 -72 27 -17 50 -37 50 -44 0 -30 -43 -194 -66 -249 -45 -111 -98 -156 -181
-156 -85 0 -234 113 -341 260 -31 41 -57 77 -59 79 -2 3 -27 -18 -56 -46 -72
-70 -177 -151 -277 -215 -96 -62 -189 -113 -193 -107 -35 50 -97 126 -124 149
-32 29 -36 50 -10 50 18 0 183 87 256 135 68 45 241 186 276 224 19 22 19 23
-2 84 -65 183 -117 460 -130 680 l-6 117 -339 0 -338 0 0 -141 0 -140 276 3
276 3 -6 -50 c-3 -27 -10 -142 -16 -255 -21 -416 -53 -524 -167 -565 -53 -18
-248 -32 -307 -21 -31 6 -36 11 -36 35 0 16 -11 66 -24 111 l-24 82 104 -7
c137 -10 168 -3 187 38 17 37 35 178 39 317 l3 95 -155 0 -155 0 -13 -145
c-16 -183 -54 -402 -88 -511 -22 -70 -96 -231 -134 -289 -7 -12 -22 -1 -77 56
-37 39 -81 80 -97 91 l-29 20 40 69 c81 140 126 298 154 549 8 68 13 256 13
495 l1 385 449 0 449 0 -2 105 c-1 58 -4 124 -7 148 l-6 42 128 0 129 0 -3
-150z"/>
</g>
</svg>
